<?xml version="1.0" encoding="UTF-8"?>
<svg id="Layer_1" xmlns="http://www.w3.org/2000/svg" version="1.1" viewBox="0 0 3730.7 285.7">
  <!-- Generator: Adobe Illustrator 29.4.0, SVG Export Plug-In . SVG Version: 2.1.0 Build 152)  -->
  <defs>
    <style>
      .st0 {
        fill: #e8861a;
      }

      .st1 {
        fill: #ffb100;
      }

      .st2 {
        fill: #efb305;
      }

      .st3 {
        fill: #ff5400;
      }

      .st4 {
        display: none;
      }
    </style>
  </defs>
  <path class="st0" d="M3712.7,249.4c-22.2-3.3-39.5-22.6-46.8-43.9-4.1-12-5.5-25.2-1.4-37.2,6.1-17.7,22.9-29.1,34.3-43.9,30.3-39.5,12.1-105.9-34.1-124.4,14.9,26.3,28,64.1,4.2,82.8-5.2,4.1-11.7,6.5-17.2,10.4-20.8,14.6-22.3,44-25.3,69.2s-15.7,55.2-41,56.4c-40.6,1.9-58.7-71.9-97.9-61.3,1.3,11.8,8.9,21.8,13.4,32.8,4.6,11,5.1,25.7-4.6,32.6-10.6,7.5-25.2.5-38.2,1-17.6.7-31.8,15.3-49.2,18.1-42.5,6.9-74.9-56.8-116.3-45.1,17.3,3.1,19.4,30,6.6,42.1-12.8,12.1-32.1,13.1-49.7,13.5-12.2.3-25.3.3-35.5-6.5-10.5-7-15.1-21.1-12.1-33.2-13,24.5-44.6,38.4-71.3,29.9-8.8-2.8-17.2-7.8-26.5-8.2-11.7-.5-23.3,6.1-34.7,3.3-16.5-4.1-22-25.2-19.4-41.9,2.6-16.7,10.2-33,8.1-49.8-3.2-25.1-27-43.2-32.3-67.9-4.5,23-8.7,46-12.3,69.1-9.1-21.6-18.1-43.3-27.2-65-8,14.7-3.6,32.6-2,49.3,1.6,16.6-2.4,37.1-18.2,42.8-18.3,6.6-37.9-12-56.7-7.2-18,4.5-27.8,28.7-46.3,28.7s-26.9-40.7-47.4-56.1c-10.4-7.9-25-8.2-35.8-15.6-16.1-10.9-18.6-33-21.8-52.2-3.2-19.1-12.4-41.4-31.7-44.1,10.2,29.8,11,62,11.8,93.5.2,8.7.4,17.4.6,26.1.3,12.4-.4,26.9-10.5,34-8.3,5.9-20.4,4.5-28.3,10.9-5.5,4.4-7.8,11.7-12.4,17.1-14.7,17.3-43.1,8-61.6-5.3-18.4-13.2-39.3-30.2-61.1-23.7-2.8-17.9,2.6-36.8,14.4-50.4-6.9-6.3-17.8,2.2-21.1,11-3.2,8.8-4.7,19.7-13.1,24-14.4,7.3-26.8-12.6-31.6-28-4.7-15.5-20.6-34.1-33.1-23.8,9.5,15.3,19.3,31.3,20.7,49.3,1.4,18-9,38.2-26.7,41.5-24.6,4.6-55.3-14.2-71.7,14.9-3.2,5.7-5,12.5-10.2,16.5-6,4.6-14.5,3.8-22.1,4.1-25.7,1-47.7,17.4-70.9,28.3-23.2,11-54.3,15.3-71.7-3.6-18.9-20.4-9.2-52.8-.7-79.3s11.5-62.3-13-75.6c-6.2,10.3-5,23.3-6.8,35.2-1.7,11.9-9.5,25.3-21.6,24.9-6.8-.3-12.6-4.9-17.8-9.3-14.9-12.6-29.8-25.3-44.7-37.9-9-7.6-25.3-13.9-30-3.1-1.9,4.4-.2,9.5,1.9,13.9,8.8,18.1,25.1,31.9,33.3,50.3,8.3,18.4,3.2,45.9-16.6,49.8-14.2,2.8-29.3-8.1-42.6-2.5-6.4,2.7-10.9,8.8-17.2,11.7-16.6,7.7-33.8-9.4-42.4-25.6-8.6-16.1-18.3-35.9-36.5-37.6-6.9,18,26.2,32.5,20.6,51-2.8,9.2-13.5,12.8-22.8,15.1-26.5,6.6-53.9,13.2-80.9,9-2.8-.4-5.6-1-8.4-1.8-10.7-2.8-21.9-2.8-32.6,0s-5.6,1.3-8.4,1.8c-27,4.2-54.4-2.4-80.9-9-9.3-2.3-20-5.9-22.8-15.1-5.6-18.5,27.5-33,20.6-51-18.2,1.7-27.9,21.5-36.5,37.6-8.6,16.2-25.8,33.3-42.4,25.6-6.3-2.9-10.8-9-17.2-11.7-13.3-5.6-28.4,5.3-42.6,2.5-19.8-3.9-24.9-31.4-16.6-49.8,8.2-18.4,24.5-32.2,33.3-50.3,2.1-4.4,3.8-9.5,1.9-13.9-4.7-10.8-21-4.5-30,3.1-14.9,12.6-29.8,25.3-44.7,37.9-5.2,4.4-11,9-17.8,9.3-12.1.4-19.9-13-21.6-24.9-1.8-11.9-.6-24.9-6.8-35.2-24.5,13.3-21.5,49.1-13,75.6s18.2,58.9-.7,79.3c-17.4,18.9-48.5,14.6-71.7,3.6-23.2-10.9-45.2-27.3-70.9-28.3-7.6-.3-16.1.5-22.1-4.1-5.2-4-7-10.8-10.2-16.5-16.4-29.1-47.1-10.3-71.7-14.9-17.7-3.3-28.1-23.5-26.7-41.5s11.2-34,20.7-49.3c-12.5-10.3-28.4,8.3-33.1,23.8-4.8,15.4-17.2,35.3-31.6,28-8.4-4.3-9.9-15.2-13.1-24-3.3-8.8-14.2-17.3-21.1-11,11.8,13.6,17.2,32.5,14.4,50.4-21.8-6.5-42.7,10.5-61.1,23.7-18.5,13.3-46.9,22.6-61.6,5.3-4.6-5.4-6.9-12.7-12.4-17.1-7.9-6.4-20-5-28.3-10.9-10.1-7.1-10.8-21.6-10.5-34,.2-8.7.4-17.4.6-26.1.8-31.5,1.6-63.7,11.8-93.5-19.3,2.7-28.5,25-31.7,44.1-3.2,19.2-5.7,41.3-21.8,52.2-10.8,7.4-25.4,7.7-35.8,15.6-20.5,15.4-21.7,56.1-47.4,56.1s-28.3-24.2-46.3-28.7c-18.8-4.8-38.4,13.8-56.7,7.2-15.8-5.7-19.8-26.2-18.2-42.8,1.6-16.7,6-34.6-2-49.3-9.1,21.7-18.1,43.4-27.2,65-3.6-23.1-7.8-46.1-12.3-69.1-5.3,24.7-29.1,42.8-32.3,67.9-2.1,16.8,5.5,33.1,8.1,49.8s-2.9,37.8-19.4,41.9c-11.4,2.8-23-3.8-34.7-3.3-9.3.4-17.7,5.4-26.5,8.2-26.7,8.5-58.3-5.4-71.3-29.9,3,12.1-1.6,26.2-12.1,33.2-10.2,6.8-23.3,6.8-35.5,6.5-17.6-.4-36.9-1.4-49.7-13.5-12.8-12.1-10.7-39,6.6-42.1-41.4-11.7-73.8,52-116.3,45.1-17.4-2.8-31.6-17.4-49.2-18.1-13-.5-27.6,6.5-38.2-1-9.7-6.9-9.2-21.6-4.6-32.6,4.5-11,12.1-21,13.4-32.8-39.2-10.6-57.3,63.2-97.9,61.3-25.3-1.2-38-31.2-41-56.4s-4.5-54.6-25.3-69.2c-5.5-3.9-12-6.3-17.2-10.4-23.8-18.7-10.7-56.5,4.2-82.8C19.7,18.5,1.5,84.9,31.8,124.4c11.4,14.8,28.2,26.2,34.3,43.9,4.1,12,2.7,25.2-1.4,37.2-7.3,21.3-24.6,40.6-46.8,43.9-6,.9-12.1.2-17.9-1.6v37.9h3730.7v-37.9c-5.8,1.8-12,2.5-17.9,1.6Z"/>
  <g id="Calque_1" class="st4">
    <path class="st3" d="M47.9-95.9c2.6-4.8,6.5-8.9,9-13.7,8-15.3,1.7-34.1-6.5-49.4-1.9-3.6-3.9-7.2-4.2-11.2s1.8-8.5,5.6-9.6c1.6-.4,3.2-.3,4.8,0,12.8,2.5,21.3,15,25.2,27.5,4.4,14.3,4.6,29.9.5,44.2-2.2,7.6-5.6,15-11.3,20.4h0c-9.7,9.3-33.5,10.8-23.1-8.2Z"/>
    <path class="st3" d="M226.1-49.7c3.3-10.3,9.2-19.5,13.2-29.6,4-10,6-21.7,1.4-31.5-2.9-6.3-8.3-11.2-11.2-17.6s-1.5-15.6,5.1-17.7c5.3-1.6,10.7,2.3,14.7,6.2,9.5,9.3,17.7,20.2,21.8,32.7s3.8,27-3,38.4c-7.3,12.4-22.1,22.1-21.6,36.5.2,6.9,4.1,13.1,7.7,18.9,3.6,5.9,7.3,12.2,7.1,19.1h0c-.9,28.4-26,3.5-31.2-7.1-7.3-14.6-9.1-32.4-4-48.3Z"/>
    <path class="st3" d="M398.5,134.4h0c4.4-2.2,9.6-2.2,14.5-3.1,9.3-1.7,18.6-8.2,20-17.6.7-4.8-.6-9.6-.7-14.4,0-4.8,1.8-10.3,6.4-11.9,3.9-1.4,8.4.9,10.7,4.4s2.8,7.8,2.7,12c-.2,14.1-6.7,28.2-17.8,36.8-13.8,10.4-55.8,3.7-35.8-6.2Z"/>
    <path class="st3" d="M467.3-17.1h0c-3.8-18.8,0-38.6,7.7-56.2,2.8-6.3,6.1-12.5,11.2-17.1,5.1-4.7,12.1-7.6,18.8-6.3-1.9,10.7-7.7,20.2-11.4,30.4-4.6,12.5-6,26-4.3,39.2,1.4,10.7,15.6,31.4,13.7,40.7-5.7,26.5-33.7-20.6-35.7-30.7Z"/>
    <path class="st3" d="M1309-64.1h0c-2.5-13.4,0-27.4,5.5-39.8,3.3-7.5,7.7-14.5,9.8-22.4,2.1-7.9,1.4-17.2-4.4-23-2-2-4.5-3.5-5.6-6-2.1-4.7,2.2-10.2,7.2-11.1s10.1,1.6,14.1,4.6c14.6,10.9,21.7,31.2,16.2,48.6-3.4,10.5-10.7,19.2-16.4,28.6-6.6,10.7-2.1,29.8-7.6,37.2-10.2,13.7-16.8-5.9-18.8-16.7Z"/>
    <path class="st3" d="M2106.7,194.6c-6.9-31.1-48.9-38.1-74.9-22.3-10.4,6.3-19.2,15.2-30.2,20.1-12.6,5.7-30.3,4.6-35.7-9.6-2.1-5.4-1.8-11.3.1-16.8,3.8-11.3,12.6-19.2,20.2-27.8,17.2-19.6,28.7-49.2,15.1-71.4-9.1-14.9-26.7-21.9-42.1-30.1-15.5-8.2-31.4-21-31.9-38.5-.3-9.1,3.6-19-1.3-26.7-4.2-6.6-13.3-8.2-20.9-6.8-23,4.1-37.9,32.6-28.2,53.9,7.9,17.4,27,26.1,41.5,38.6,11.2,9.6,20.3,22.4,22.4,37,2.2,14.6-3.8,30.8-16.6,38.2-10.3,6-23,5.5-34.1,9.8-21.2,8.1-32.1,30.9-44.1,50.2-12,19.3-32.3,38.6-54.3,33-6.1-1.6-12.1-5.6-13.5-11.8-1-4.5.6-9.2,2.8-13.4,8.1-15.5,22.7-26.5,36.2-37.6s27.1-23.9,31.8-40.8c4.7-16.9-3.6-38.5-20.7-42.1-13.4-2.8-26.5,5.6-40.2,6.3-21.6,1-40.5-20.2-39.8-41.8.3-7.9,2.6-15.9.7-23.5-3.4-13.2-20-20.2-32.7-15.5-12.8,4.7-20.7,18.5-21.1,32.1s5.9,26.7,14.5,37.2c10.6,12.9,25.4,23.4,30.3,39.4,5,16.2-1.6,33.8-10.4,48.3-6.9,11.4-15.7,22.3-27.8,27.9-12.1,5.6-28,4.6-37-5.2-22.9-25.2,18.3-71.1-3.3-97.3-10-12.2-28.5-12.5-44.1-9.7-15.5,2.9-31.8,7.8-46.7,2.4-19.3-6.9-29.3-29.8-27.3-50.3,2-20.4,13.4-38.7,25.7-55.1.9-1.3,1.9-2.5,2.9-3.8,2.7-3.5-2.1-7.8-5.3-4.7-23.2,22.3-43.2,48.2-62.9,73.8-18.4,23.9-37.1,48.6-45.8,77.4-6,19.8-6.6,42.2,3.6,60.1,6.7,11.7,17.7,21,22.2,33.8,3.7,10.6,2,23.1-5.1,31.8-7.1,8.7-19.6,12.8-30.3,9.2-18.7-6.4-23.3-30.2-35.1-46.1-7.8-10.6-18.7-17.6-30.9-22.5-11.8-4.8-23.1-10.8-34-17.5-7.7-4.7-15.8-8.6-24-11.8-15.6-6-32.3-10.2-46-19.8-23.1-16.1-34.3-47.6-26.5-74.7,3-10.6,9.3-20.9,19.3-25.4s24-.7,27.7,9.7c2.8,7.7.5,18.6,8.3,22.1,1.8.8,3.8,1,5.7.8,15.6-1.8,27.9-15.3,31.8-30.4,3.7-14.3.9-29.7-4.8-43.3-4.1-9.9-9.9-19.4-18.6-25.5-22.8-15.8-55.1-1.7-74.1,18.5-25.1,26.6-38.9,63.6-37.3,100.1.4,9.3,1.4,19.9-6,26.4-6.4,5.6-16,5.3-22.8.2-12.4-9.4-12.9-25.4-10.1-39.4,2.3-11.4,6.5-22.5,7.1-34.2.5-11.7-2.8-23.2-6.3-34.4-3.3-10.6-7.1-21.5-15.3-29-8.2-7.5-22-10-30.1-2.5-2,20.4,29.9,28,35,47.8,4.6,17.9-14.5,32.1-23.3,48.4-11.7,21.8-4.6,49.6-13.9,72.5-4.4,10.8-12.5,20.2-22.6,26.1-10.3,6-25,7.8-33.1-1-8.3-9.1-5-23.7,1-34.5s14.4-21,15-33.3c1-19.3-17.8-37.3-11.9-55.8,3.6-11.4,15.3-17.9,24.3-25.8,9-8,15.7-22.5,7.6-31.3-3.1-3.4-7.6-5-12-6.4-17.9-5.8-36.5-10.7-52.2-21.1-15.7-10.4-28.5-27.5-27.8-46.4.7-18.8,19.2-36.7,37.5-32.1,12.8,3.3,21.3,15.7,25.5,28.3,4.2,12.5,5.5,26,10.5,38.3,12.9-7.3,19.9-22.6,19.9-37.4s-6.3-29.1-14.8-41.2c-8.6-12.4-20.3-23.4-34.7-27.6-30.6-9-62.5,16-74.1,45.7-11.7,29.7-9.1,62.7-9.5,94.6,0,13.2-1.1,27.2-11.1,37-4.7,4.5-11.2,6.9-17.6,5.8-14.8-2.6-17.4-20.6-10.9-32,5.6-9.8,15.9-15.9,25.7-21.5-3.3-14.7-23.5-20.1-36.8-13.2-13.4,6.9-20.8,21.5-25.8,35.7-4.1,11.6-7.1,24-4.9,36.1,2.3,12.6,10,23.5,15.1,35.3,5,11.8,6.9,26.8-1.5,36.5-9.4,10.8-27.4,9.5-39.4,1.7-13.6-8.8-22.2-23.4-33.3-35-2.6-2.7-6.2-4.2-9.9-3.8-11.3,1.2-9.5,18-1.9,25.7,7.4,7.5,18.2,13.8,18.7,24.2.2,3.8-1.2,7.6-3.2,10.9-11,17.7-42.8,14.4-49.9-5.2-2.8-7.7-2-16.2-1.1-24.4,4.2-35.6,11.9-70.8,22.9-105-15.2-1-27.7,12.5-33.5,26.6-6.5,15.7-7.8,33.4-17.1,47.9-2.1,3.2-5.2,5.7-8.9,6.6-13.3,3.2-18.9-15.2-17.4-28.2,2.6-22.1,9.9-43.4,13.5-65.3s3.1-45.9-8.8-64.7c-12.8-20-35.6-30.6-57.7-38.4-15.4-5.4-32.1-9.9-47.9-6-15.9,3.9-30.1,18.9-27.7,35,3.8,24.6,36.6,29.2,57.6,42.5,21.1,13.4,32,39.6,31,64.6s-12.5,48.6-28,68.3c-18,22.8-43.2,47.2-36.4,75.4,3.9,16.1,18.2,30.7,13.8,46.6-4.6,16.4-25.6,21.2-42.6,20.1-11.9-.7-24.2-3-33.9-10-16.3-11.7-21.6-34.3-18.2-54,3.4-19.7,14.1-37.4,24.5-54.5-17.3-3.6-35.2,6.7-45.3,21.2s-14,32.3-16.6,49.8c-2.4,16.1-3.9,32.4-3.2,48.6-9.1-13.4-20.8-25-34.7-33.5-32.3-19.9-75.5-21.6-108.4-2.7-15.3,8.8-30.6,22.2-47.9,19.2-20.8-3.5-30.5-29.8-25.3-50.2,7.5-29.5,39.6-50.5,69.7-45.6,8.1,1.3,17.1,4.1,24.1-.2-18.8-25.7-50.4-41.6-82.2-41.2-31.9.4-63.1,16.9-81.3,43.1-8.7,12.6-14.6,27.1-23.8,39.3-5.6,7.4-13.2,14.2-22.4,15-8.6.8-16.9-3.8-23.2-9.7-25-23.4-24.4-64.2-11.5-96,12.9-31.8,35.4-58.7,50.2-89.7,14.7-31,20.4-70.3,0-97.8-6.9-9.3-16.3-16.5-25.5-23.5-14.5-11-29-22.1-43.4-33.1-3.8-2.9-8-6-13.6-3.6-4.5,1.9-7.3,6.4-7.4,11.3-.3,10.6,7.3,17.9,13.7,25.4,9.7,11.5,17.2,26.2,15.1,41.1-1.6,11.8-9,22.1-17.3,30.6-25,25.6-61.1,40-96.8,38.4-10.6-.4-21.4-2.2-31.5,1.1-20.6,6.6-29.6,31-30.5,52.6-1.9,38.5,14.3,77.5,42.8,103.7,7.9,7.3,16.9,13.8,22.6,23,6.9,11.1,7.5,27.9-6.2,34.3-6.7,3.2-14.5,2.3-20.9-1.5-14.9-8.8-18.7-26.9-20.7-42.6-.5-4.2-2.4-8.2-5.6-11.1-8.1-7.4-16.8-.8-19.1,6.8-1.7,5.5-.8,11.4,0,17,2.2,18.3,2.7,37.5-4.4,54.5-7.2,17.3-21.5,30.7-31.2,46.8h0c-7.9,12.9-10.1,28.1-7.2,41.9H1985.3c-4-5.5-7.6-11-7.9-17.6-.2-5.4,2-10.7,4.6-15.4,19.7-36.3,65.6-55.3,105.7-45.7,6,1.4,12.9,3.3,17.2-2.6,2-2.8,2.5-6.4,1.8-9.7Z"/>
    <path class="st3" d="M1433.6,7.9c-7.3-13.3-20.5-23.2-35.3-26.5-2.7-.6-5.8-.9-7.8.9-3,2.6-1.6,7.8,1.4,10.3s7.2,3.3,10.8,4.8c8.2,3.4,14.4,10.6,17.9,18.8s4.6,17.1,4.7,26c0,4.8,0,9.8,2.3,14h0c9.4,17.5,13.5-6.8,13.7-13.4.1-12.1-1.8-24.3-7.7-34.9Z"/>
    <path class="st3" d="M1594.6,15.6c1.4-20.6,11.1-40.6,26.4-54.4,15.4-13.8,36.2-21.4,56.8-20.6-2.8,28.6-46.6,39-49.5,67.6-.6,6.2.9,12.3,1.8,18.4s.9,12.8-2.3,18.1h0c-15.4,25.9-34.1-15.5-33.2-29.1Z"/>
    <path class="st3" d="M2079.5,69.3h0c0-22.2-9.9-44.3-26.4-59.1-1.8-1.6-3.9-3.2-6.4-3.1-2.7.2-4.7,2.4-5.9,4.8-4.1,8.1-1.8,17.9,2.2,26s9.5,15.5,12.1,24.2c2.6,8.6,2,18.2-1.7,26.4-3.2,7.3-8.8,13.6-10.6,21.4-4.8,20.1,11.4,17.4,20.7,7,10.9-12.3,16-31.6,16-47.6Z"/>
    <path class="st1" d="M64.2-137.3c-1.3-2.9-2.9-5.9-2.8-9.1.1-3.2,2.9-6.5,6-5.8,3,.8,3.9,4.4,4.4,7.5h0c1.3,9,7.1,32.9-5.1,33.7,1-8.7,1-17.9-2.5-26.3Z"/>
    <path class="st1" d="M248.7-106c8.5,9.8,8.8,25.7.6,35.7-2.7,3.4-6.3,6.1-9.1,9.3-11.7,13.2-11.6,33.3-6.7,50.3,1.1,3.7,4.1,8.2,7.6,6.5,4.1-1.9.9-8-1.8-11.6-7.2-9.4-8.3-23.1-2.6-33.5,5.3-9.7,15.5-16,20.5-25.9,4.5-9,4-20,.2-29.4h0c-3.4-8.4-9.1-16.1-16-21.9-5.5,8.1,1.7,14.1,7.3,20.5Z"/>
    <path class="st1" d="M478,2.2c1.3,2,2.7,4.1,4.9,5s5.2.2,6-2.1c.6-1.8-.4-3.7-1.4-5.4-7.4-12.5-13.6-27.3-9.9-41.4h0c1.9-7.4,16.1-26.1,11-33.5-6.7-9.7-14.3,11.1-16.1,16.1-7.2,19.9-5.8,43.2,5.5,61.3Z"/>
    <path class="st1" d="M650.3-75h0c9.5,1.3,19.5,2.4,27.3,8,6.8,4.9,11,12.6,14.3,20.3,5.5,12.9,9.2,26.5,11,40.4.4,3.2.9,6.8,3.3,9,4.1,3.8,11.4.6,13.6-4.6,2.2-5.2.7-11.1-1-16.4-8.8-27.5-24.5-52.5-42.7-75-3.4-4.3-8.2-8.9-13.5-7.6-7.9,1.9-8.6,9.5-17.7,8.5-7.3-.8-8.3-12.7-18.3-9.3-23.6,8,15.1,25.4,23.7,26.7Z"/>
    <path class="st1" d="M988.5-63.1c-.2-11.1,2.5-22,5.2-32.8,2.4-9.9,5-20.1,10.9-28.4,8.5-11.9,23.7-18.6,38.3-16.8,13,1.6,24.3,9.4,34.9,17.1,4.8,3.5,10.2,8.8,8.4,14.5-12.7-6.6-25.4-13.2-38.1-19.8-3.4-1.8-6.8-3.5-10.6-4.3-11.6-2.5-23.5,5.3-29.5,15.6-6,10.3-7.5,22.5-8.8,34.3-1.1,9.7-2.1,19.7,1.3,28.8h0c10.6,28.7-11.7,15.5-12-8.2Z"/>
    <path class="st1" d="M906-7.5c-3.8,14.5-4.3,29.9-1.5,44.7,1,5.3,2.5,10.7,5.8,14.9s8.9,7,14.1,5.8c-2.2-8-7.1-15-10.3-22.7h0c-9.7-23.6.2-51.8,20.8-66-7.2-18.8-26.8,15.3-28.9,23.3Z"/>
    <path class="st1" d="M1339.3-132.7c-1.1,8.4-5.4,16-9.5,23.5s-8.1,15.4-8.2,23.9c0,3.2.4,6.6-.6,9.7s-4.4,5.7-7.4,4.6c.7-9.4,1.4-18.9,4.1-27.9h0c2.4-8,6.8-15.5,8.7-23.5,1.2-5-1.4-21.9,0-24.5,6.8-11.9,14.2,3.8,12.9,14.2Z"/>
    <path class="st1" d="M1610.7-17.7c6.7-7.7,17.1-11.3,24.1-18.7,3.4-3.6,6-8,9.8-11.1s9.6-4.8,13.6-1.9c-4.8,10.5-17.1,14.7-26.3,21.7-13.1,10-20.2,27.3-17.9,43.6h0c2.5,17.9-5.5,20.8-10.2,3.1-3.1-11.8-1.1-27.4,6.9-36.7Z"/>
    <path class="st1" d="M1921.1,47.8h0c2.5,1.4,5.4,1.8,8.2,2.6,8.4,2.4,15.3,9.4,17.6,17.8,1.5,5.7,1.1,11.9,3.6,17.3,2.4,5.4,9.9,9.3,14.2,5.3,2.4-2.2,2.9-5.8,2.7-9.1-1.1-18.3-16.4-32.5-32.4-41.5-6.1-3.4-12.8-6.7-16-12.9-3.4-6.7-13.4-33-11.9-37.6-7.8.6-19.3,8.8-18.4,17.9.8,8,13,11.8,17.5,17.1,5.6,6.4,7.5,18.8,14.9,23.1Z"/>
    <path class="st1" d="M2059.6,48.3h0c8.1,15.2,4.1,33.8-.4,50.4,4.3.6,7.1-4.4,8.3-8.6,4.3-16,5-40.3-4.2-55-1.9-3-7.5-16.6-13.7-8.7-4.5,5.6,7.2,16.5,10,21.9Z"/>
    <path class="st1" d="M2061.5,169.9h0c12.1.1,24.3,5.2,31.9,14.6,1.6,1.9,3,4.3,2.7,6.7-.4,4.3-5.9,6.5-10.1,5.5-4.2-1-7.6-4.2-11.1-6.7-8.6-6.2-30.1-4-35.1-8.5-9.8-9,15.8-11.6,21.7-11.6Z"/>
    <path class="st1" d="M1704.2,33.9c-.4,8.9,3.8,17.8,10.8,23.3,3.5,2.7,9.5,4.1,11.7.3,2.7-4.6-3.4-9-7-13h0c-8.6-9.6-1.9-22.3,2-32.1-10.3-1.7-17.1,12-17.5,21.5Z"/>
    <path class="st1" d="M1434,19.7c3.8,7.8,5.4,17.1,2.5,25.3-3.1.3-5.1-3.2-6.1-6.2h0c-3.4-9.6-12.5-24-5.7-32.1,4,3.6,7,8.1,9.3,13Z"/>
  </g>
  <path class="st1" d="M528.6,212.6c-.7-2.9-1.9-5.7-3.5-8.2.9,2.8,2.1,5.6,3.5,8.2Z"/>
  <path class="st2" d="M0,265v20.6h1401.3c-12-11.5-29.9-17.3-46.4-22-44.6-12.8-89.8-25.7-136.2-26.8-4.3-.1-8.9-.2-12.6-2.5-17.6-11.2,12.6-45.5-4.5-57.4-3.8,27-45.8,24.9-64.3,45-5.8,6.3-9,14.6-15.1,20.7-15.8,15.7-42.2,9.3-63.2,1.8-27.9-9.9-55.7-19.9-83.6-29.8-6.3-2.3-12.9-4.7-17.5-9.5-13.5-14.2-2.8-37.3,8.4-53.4-24.1,4-35.6,30.8-46.2,52.8-10.6,22-32.7,45.6-55.3,36.3-11.6-4.8-20-17.7-32.6-17.9-6.2,0-12.3,3.1-18.3,1.9-14.4-2.7-17.2-26.3-31.6-28.4-5-.7-9.9,1.5-14.8,2.6-19.4,4.3-40.4-13.7-39.1-33.6-14,4.1-17.1,22.4-15.9,36.9,1.3,14.5,3.7,31.3-6.6,41.6-14.8,15-39.9,2.8-60.9,4.3-28.6,2-55.9,31-81.6,18.2-5.4-2.7-10.1-7.2-16.1-8.2-5.8-1-11.6,1.4-17.2,3.3-28.1,9.6-58.7,6.9-88.2,4.1-22.1-2.1-51.5-13.6-46.7-35.2-6.1,22.2-32.7,31.4-55.7,32.3-22.5.9-45.3-2.8-66.4-10.8-20.6-7.9-46.6-18.8-62-3-5.1-15.5-6.1-32.4-2.8-48.4-12.5,18.5-33.8,28.8-54.1,38.3-7.6,3.5-15.6,7.1-23.9,6.7-23.1-1.3-32.7-30-35-53-2.3-23-7.2-51.6-29.4-58.2,22.2,29.2,32.7,70.5,15.8,103.1-14.7,28.6-55,42.7-81.7,27.6Z"/>
  <path class="st1" d="M3202,212.6c.7-2.9,1.9-5.7,3.5-8.2-.9,2.8-2.1,5.6-3.5,8.2Z"/>
  <path class="st2" d="M3730.7,265v20.6h-1401.3c12-11.5,29.9-17.3,46.4-22,44.6-12.8,89.8-25.7,136.2-26.8,4.3-.1,8.9-.2,12.6-2.5,17.6-11.2-12.6-45.5,4.5-57.4,3.8,27,45.8,24.9,64.3,45,5.8,6.3,9,14.6,15.1,20.7,15.8,15.7,42.2,9.3,63.2,1.8,27.9-9.9,55.7-19.9,83.6-29.8,6.3-2.3,12.9-4.7,17.5-9.5,13.5-14.2,2.8-37.3-8.4-53.4,24.1,4,35.6,30.8,46.2,52.8,10.6,22,32.7,45.6,55.3,36.3,11.6-4.8,20-17.7,32.6-17.9,6.2,0,12.3,3.1,18.3,1.9,14.4-2.7,17.2-26.3,31.6-28.4,5-.7,9.9,1.5,14.8,2.6,19.4,4.3,40.4-13.7,39.1-33.6,14,4.1,17.1,22.4,15.9,36.9-1.3,14.5-3.7,31.3,6.6,41.6,14.8,15,39.9,2.8,60.9,4.3,28.6,2,55.9,31,81.6,18.2,5.4-2.7,10.1-7.2,16.1-8.2,5.8-1,11.6,1.4,17.2,3.3,28.1,9.6,58.7,6.9,88.2,4.1,22.1-2.1,51.5-13.6,46.7-35.2,6.1,22.2,32.7,31.4,55.7,32.3,22.5.9,45.3-2.8,66.4-10.8,20.6-7.9,46.6-18.8,62-3,5.1-15.5,6.1-32.4,2.8-48.4,12.5,18.5,33.8,28.8,54.1,38.3,7.6,3.5,15.6,7.1,23.9,6.7,23.1-1.3,32.7-30,35-53,2.3-23,7.2-51.6,29.4-58.2-22.2,29.2-32.7,70.5-15.8,103.1,14.7,28.6,55,42.7,81.7,27.6Z"/>
  <path class="st2" d="M2191.3,205.6c-4.6-1.9-8.7,4.1-9.5,9.1s-1.6,11.3-6.4,12.9c-10.4-6-12.9-19.6-15.9-31.3-2.9-11.7-10.1-25-22.2-25.1.2,15.7,10.1,29.4,15,44.3,4.9,14.9,1.6,35.7-13.6,39.6-9.4,2.4-19.3-2.8-28.7-.7-8.6,2-15.5,9.9-24.4,10.2-11,.4-19.9-10.9-30.9-10.2-7.2.5-12.8,5.9-18.8,9.8-6,3.9-14.7,6.3-19.8,1.3-5.4-5.3-2.8-14.7-6.1-21.5-4.9-2.3-10.2,3-11.7,8.3-1.5,5.2-1.2,11.2-4.4,15.6-4.1,5.7-12.3,6.6-19,4.8-6.7-1.8-12.6-5.7-19.2-8-28.7-10.2-61.7,11.2-90.4,8.7-28.7,2.5-61.7-18.9-90.4-8.7-6.6,2.3-12.5,6.2-19.2,8s-14.9.9-19-4.8c-3.2-4.4-2.9-10.4-4.4-15.6-1.5-5.3-6.8-10.6-11.7-8.3-3.3,6.8-.7,16.2-6.1,21.5-5.1,5-13.8,2.6-19.8-1.3-6-3.9-11.6-9.3-18.8-9.8-11-.7-19.9,10.6-30.9,10.2-8.9-.3-15.8-8.2-24.4-10.2-9.4-2.1-19.3,3.1-28.7.7-15.2-3.9-18.5-24.7-13.6-39.6,4.9-14.9,14.8-28.6,15-44.3-12.1.1-19.3,13.4-22.2,25.1-3,11.7-5.5,25.3-15.9,31.3-4.8-1.6-5.6-7.9-6.4-12.9s-4.9-11-9.5-9.1c-3.2,1.3-3.9,5.5-3.7,8.9.8,17.4,11.7,33.1,11.4,50.3,0,7.8-4.8,14.6-10.2,20.8h657c-5.4-6.2-10.1-13-10.2-20.8-.3-17.2,10.6-32.9,11.4-50.3.2-3.4-.5-7.6-3.7-8.9Z"/>
</svg>